<svg id="Soot" xmlns="http://www.w3.org/2000/svg" viewBox="0 0 24.65 20.63"><defs><style>.cls-1{fill:#5d5d5d;}</style></defs><path class="cls-1" d="M16.36,6.22A3.58,3.58,0,1,0,19.94,9.8,3.58,3.58,0,0,0,16.36,6.22Zm0,6.15a2.58,2.58,0,1,1,2.58-2.58A2.59,2.59,0,0,1,16.36,12.37Z" transform="translate(-0.07 -0.05)"/><path class="cls-1" d="M7.18,10a5.35,5.35,0,1,0,5.35,5.35A5.36,5.36,0,0,0,7.18,10Zm0,9.7a4.35,4.35,0,1,1,4.35-4.35A4.36,4.36,0,0,1,7.18,19.68Z" transform="translate(-0.07 -0.05)"/><path class="cls-1" d="M22,.05a2.73,2.73,0,1,0,2.73,2.73A2.73,2.73,0,0,0,22,.05Zm0,4.47a1.74,1.74,0,1,1,1.74-1.74A1.74,1.74,0,0,1,22,4.52Z" transform="translate(-0.07 -0.05)"/><path class="cls-1" d="M14.59,4.59a2.27,2.27,0,1,0-2.27-2.27A2.27,2.27,0,0,0,14.59,4.59Zm0-3.54a1.27,1.27,0,1,1,0,2.54,1.27,1.27,0,1,1,0-2.54Z" transform="translate(-0.07 -0.05)"/><path class="cls-1" d="M3.89,6.71A1.91,1.91,0,1,0,2,8.62,1.91,1.91,0,0,0,3.89,6.71Zm-2.83,0A.92.92,0,1,1,2,7.63.92.92,0,0,1,1.06,6.71Z" transform="translate(-0.07 -0.05)"/></svg>