<?xml version="1.0" encoding="utf-8"?>
<!-- Generator: Adobe Illustrator 28.0.0, SVG Export Plug-In . SVG Version: 6.00 Build 0)  -->
<svg version="1.1" id="Baans" xmlns="http://www.w3.org/2000/svg" xmlns:xlink="http://www.w3.org/1999/xlink" x="0px" y="0px"
	 viewBox="0 0 30.88 30.11" style="enable-background:new 0 0 30.88 30.11;" xml:space="preserve">
<style type="text/css">
	.st0{fill:#FFFFFF;}
</style>
<g>
	<path class="st0" d="M15.69,16.25c0.2-1.64,0.13-9.84,0-11.04c-0.08-0.7-0.06-1.47-0.03-2.46c0.02-0.57,0.03-1.19,0.03-1.9h-1
		c0,0.69-0.02,1.31-0.03,1.87c0,0.13,0,0.24-0.01,0.36C12.88,3.53,11.53,3.24,11.11,3c0-0.08,0-0.16,0.01-0.25
		c0.02-0.57,0.03-1.19,0.03-1.9h-1c0,0.69-0.02,1.31-0.03,1.87c-0.03,0.98-0.05,1.83,0.04,2.59c0.12,1.1,0.19,9.24,0,10.81
		c-0.11,0.89-0.01,2.19,0.07,3.34c0.04,0.53,0.07,1.06,0.08,1.5c-0.09-0.12-0.17-0.22-0.27-0.35c-0.63-0.81-1.45-1.88-2.35-3.24
		c1.95-1.98,1.79-5.78,1.7-8.1C9.37,8.77,9.35,8.34,9.36,8.03l0.05-1.34L8.49,7.67c-1.71,1.84-1.94,4.51-1.96,7.83
		c-0.49-0.85-0.99-1.78-1.47-2.81C5.16,6.48,3.24,2.54,1.4,0.93L0.34,0l0.23,1.38c0.92,5.56,2.56,9.83,4.24,13.07
		C3.2,13.55,1.83,13,1.15,12.88L0,12.69l0.65,0.96c1.57,2.32,3.14,3.87,5.89,4.41l0,0.27l0.27-0.22c0.05,0.01,0.09,0.02,0.15,0.03
		l0.01-0.06c0.87,1.31,1.67,2.34,2.28,3.14c0.4,0.52,0.71,0.93,0.93,1.25c-0.11,1.13-0.13,2.77-0.08,3.39
		c0.06,0.81,0.08,3.62-0.01,3.99l0.97,0.24c0.14-0.55,0.09-3.61,0.04-4.31c0-0.03,0-0.09-0.01-0.13c0.45,0.15,1.05,0.26,1.78,0.26
		c0.53,0,1.13-0.06,1.76-0.2c0,0.05,0,0.11,0.01,0.15c0.06,0.81,0.08,3.62-0.01,3.99l0.97,0.24c0.14-0.55,0.09-3.61,0.04-4.31
		c-0.05-0.71,0-3.05,0.17-3.89c0.1-0.47,0.05-1.26-0.04-2.52C15.68,18.29,15.59,17.04,15.69,16.25z M8.4,9.57
		c0.07,1.88,0.14,4.62-0.87,6.37C7.54,13.15,7.66,11.1,8.4,9.57z M1.91,3.11c0.96,1.53,1.8,3.89,2.07,7.06
		C3.18,8.13,2.46,5.79,1.91,3.11z M2.41,14.36c0.87,0.38,2.04,0.98,3.37,1.83c0.16,0.27,0.32,0.54,0.48,0.79
		C4.6,16.56,3.47,15.68,2.41,14.36z M12.87,4.32c0.53,0,1.13-0.06,1.77-0.2c0,0.42,0.02,0.82,0.06,1.2
		c0.12,1.04,0.18,8.41,0.03,10.51c-1.71,0.45-3.05,0.21-3.53-0.03c0.15-2.33,0.09-9.47-0.04-10.59c-0.04-0.35-0.05-0.73-0.05-1.14
		C11.54,4.21,12.14,4.32,12.87,4.32z M11.08,24.59L11.08,24.59c0.01-0.95,0.07-2.13,0.18-2.68c0.1-0.47,0.05-1.26-0.04-2.52
		c-0.06-0.87-0.13-1.81-0.11-2.57c0.44,0.14,1.03,0.25,1.76,0.25c0.54,0,1.14-0.06,1.78-0.21c-0.01,0.79,0.05,1.73,0.11,2.59
		c0.07,0.93,0.13,1.89,0.06,2.25c-0.13,0.64-0.2,1.96-0.21,2.99C12.83,25.15,11.46,24.84,11.08,24.59z"/>
	<path class="st0" d="M23.78,16.08c1.48-2.97,2.47-5.46,1.78-7.87l-0.37-1.29l-0.56,1.22c-0.13,0.28-0.34,0.65-0.59,1.1
		c-0.37,0.67-0.83,1.49-1.24,2.37c-0.03-1.65,0.02-3.62,0.11-4.41c0.08-0.77,0.06-1.61,0.04-2.59c-0.02-0.56-0.03-1.18-0.03-1.87h-1
		c0,0.7,0.02,1.33,0.03,1.9c0.03,0.98,0.05,1.76-0.03,2.46c-0.13,1.13-0.18,4.42-0.04,6.18c-0.49,0.24-1.82,0.48-3.53,0.03
		c-0.14-1.65-0.09-5.01,0.03-6.1c0.08-0.77,0.06-1.61,0.04-2.59c-0.02-0.56-0.03-1.18-0.03-1.87h-1c0,0.7,0.02,1.33,0.03,1.9
		c0.03,0.98,0.05,1.76-0.03,2.46c-0.14,1.23-0.19,5.05,0,6.64c0.09,0.79,0.01,2.74-0.07,4.45c-0.09,2.01-0.14,3.26-0.04,3.73
		c0.17,0.84,0.22,3.18,0.17,3.89c-0.05,0.7-0.1,3.76,0.04,4.31l0.97-0.24c-0.09-0.37-0.07-3.18-0.01-3.99c0-0.04,0-0.1,0.01-0.15
		c0.63,0.14,1.23,0.2,1.76,0.2c0.73,0,1.33-0.11,1.78-0.26c0,0.04,0,0.1-0.01,0.13c-0.05,0.7-0.1,3.76,0.04,4.31l0.97-0.24
		c-0.09-0.37-0.07-3.18-0.01-3.99c0.06-0.79,0.01-3.22-0.19-4.16c-0.07-0.35-0.01-1.87,0.05-3.27c0.68,0.18,1.33,0.26,1.96,0.26
		c1.74,0,3.32-0.63,5.07-1.61l1.02-0.57l-1.21-0.38C27.57,15.48,25.6,15.46,23.78,16.08z M24.78,9.95
		c-0.03,1.57-0.74,3.32-1.84,5.56c0.01-0.54,0.01-1.02,0-1.41C23.34,12.6,24.15,11.09,24.78,9.95z M18.44,24.7
		c-0.01-1.03-0.07-2.35-0.21-2.99c-0.08-0.37,0-2.02,0.06-3.48c0.06-1.43,0.13-2.88,0.11-3.87c0.64,0.14,1.25,0.21,1.78,0.21
		c0.67,0,1.22-0.09,1.65-0.22c-0.21,0.98-0.24,1.95,0.04,2.85c-0.01,0.33-0.03,0.67-0.04,1c-0.09,2-0.14,3.26-0.04,3.73
		c0.11,0.55,0.17,1.73,0.19,2.69l-0.01-0.01C21.59,24.84,20.23,25.14,18.44,24.7z M23.07,17.47c0.01-0.01,0.01-0.02,0.02-0.03
		c2.04-1.03,3.94-0.9,5.17-0.64C26.52,17.63,24.97,17.96,23.07,17.47z"/>
</g>
</svg>
