<svg id="Maati" xmlns="http://www.w3.org/2000/svg" viewBox="0 0 16.66 26.14"><defs><style>.cls-1{fill:#5d5d5d;}</style></defs><path class="cls-1" d="M16.67,14.36a.58.58,0,0,0,0-.32,7.59,7.59,0,0,0-.15-.82,6.77,6.77,0,0,0-.33-1.05s0,0,0-.06a4.14,4.14,0,0,0-1.85-2.35A4.18,4.18,0,0,1,12,7.37C12,7,12,3.9,12,2.91A3.38,3.38,0,0,0,13.2.58a.5.5,0,0,0-.5-.5H4.06a.5.5,0,0,0-.5.5A3.34,3.34,0,0,0,4.74,2.91c0,1,.06,4.1,0,4.46A4.18,4.18,0,0,1,2.47,9.76c-.91.37-1.81,1.79-2.19,3.46-.05.21-.09.44-.13.69a.45.45,0,0,0,0,.34,10.2,10.2,0,0,0,0,2.33.53.53,0,0,0-.08.25.5.5,0,0,0,.17.37,15.58,15.58,0,0,0,4,7.53,1.1,1.1,0,0,1,.12.81.5.5,0,0,0,0,.46.49.49,0,0,0,.41.22H12a.49.49,0,0,0,.4-.21.53.53,0,0,0,.06-.46,1,1,0,0,1,.12-.82,15.6,15.6,0,0,0,4-7.52.47.47,0,0,0,.18-.37.57.57,0,0,0-.08-.26A9.81,9.81,0,0,0,16.67,14.36Zm-1.14-.92c0,.2.08.42.12.65l-.84.81L13,13.18a.51.51,0,0,0-.69,0l-1.77,1.7L8.9,13.2a.5.5,0,0,0-.69,0L6.32,14.9,4.77,13.22a.5.5,0,0,0-.7,0L2.16,14.93l-1-.94c0-.19.06-.37.1-.53a5,5,0,0,1,.18-.62H15.35Q15.44,13.11,15.53,13.44ZM1,15.24l.78.72a.49.49,0,0,0,.67,0l1.88-1.71,1.55,1.68a.49.49,0,0,0,.37.16A.46.46,0,0,0,6.62,16l1.89-1.72,1.67,1.7a.49.49,0,0,0,.7,0l1.78-1.72L14.44,16a.51.51,0,0,0,.69,0l.58-.56a7.75,7.75,0,0,1-.06.93H1.1A10.34,10.34,0,0,1,1,15.24Zm1.8-4.56A5.15,5.15,0,0,0,5.71,7.57c.1-.49.06-4.28,0-4.94a.54.54,0,0,0-.16-.33,3.16,3.16,0,0,1-.91-1.23h7.48a3.31,3.31,0,0,1-.91,1.24.53.53,0,0,0-.17.33c-.05.66-.09,4.45,0,4.94a5.18,5.18,0,0,0,2.87,3.11,2.68,2.68,0,0,1,1,1.15H1.84A2.54,2.54,0,0,1,2.84,10.68Zm8.92,13.41-.06.08a2.16,2.16,0,0,0-.31,1h-6a2.16,2.16,0,0,0-.31-1L5,24.09a15,15,0,0,1-3.75-6.77H15.5A14.84,14.84,0,0,1,11.76,24.09Z" transform="translate(-0.06 -0.08)"/></svg>