<svg id="Baans" xmlns="http://www.w3.org/2000/svg" viewBox="0 0 30.9 30.13"><defs><style>.cls-1{fill:#5d5d5d;}</style></defs><path class="cls-1" d="M15.69,16.25c.2-1.64.13-9.84,0-11a17.65,17.65,0,0,1,0-2.46c0-.57,0-1.19,0-1.9h-1c0,.69,0,1.31,0,1.87,0,.13,0,.24,0,.36A5.5,5.5,0,0,1,11.11,3a2.18,2.18,0,0,1,0-.25c0-.57,0-1.19,0-1.9h-1c0,.69,0,1.31,0,1.87a18.08,18.08,0,0,0,0,2.59c.12,1.1.19,9.24,0,10.81a20.13,20.13,0,0,0,.07,3.34c0,.53.07,1.06.08,1.5L10,20.61c-.63-.81-1.45-1.88-2.35-3.24,2-2,1.79-5.78,1.7-8.1,0-.5,0-.93,0-1.24l.05-1.34-.92,1c-1.71,1.84-1.94,4.51-2,7.83-.49-.85-1-1.78-1.47-2.81C5.16,6.48,3.24,2.54,1.4.93L.34,0,.57,1.38A43.51,43.51,0,0,0,4.81,14.45a14.45,14.45,0,0,0-3.66-1.57L0,12.69l.65,1C2.22,16,3.79,17.52,6.54,18.06v.27l.27-.22.15,0v-.06c.87,1.31,1.67,2.34,2.28,3.14.4.52.71.93.93,1.25a25.6,25.6,0,0,0-.08,3.39,34.91,34.91,0,0,1,0,4l1,.24a32.37,32.37,0,0,0,0-4.31.62.62,0,0,0,0-.13,5.68,5.68,0,0,0,1.78.26,8.19,8.19,0,0,0,1.76-.2.71.71,0,0,0,0,.15,34.91,34.91,0,0,1,0,4l1,.24a32.37,32.37,0,0,0,0-4.31,23.63,23.63,0,0,1,.17-3.89,11.31,11.31,0,0,0,0-2.52A17.74,17.74,0,0,1,15.69,16.25ZM8.4,9.57c.07,1.88.14,4.62-.87,6.37C7.54,13.15,7.66,11.1,8.4,9.57ZM1.91,3.11A16,16,0,0,1,4,10.17,42.91,42.91,0,0,1,1.91,3.11Zm.5,11.25a25,25,0,0,1,3.37,1.83c.16.27.32.54.48.79A6.89,6.89,0,0,1,2.41,14.36Zm10.46-10a8.34,8.34,0,0,0,1.77-.2,11.47,11.47,0,0,0,.06,1.2c.12,1,.18,8.41,0,10.51a5.68,5.68,0,0,1-3.53,0c.15-2.33.09-9.47,0-10.59a10.18,10.18,0,0,1-.05-1.14A5.78,5.78,0,0,0,12.87,4.32ZM11.08,24.59h0a18.8,18.8,0,0,1,.18-2.68,11.31,11.31,0,0,0,0-2.52c-.06-.87-.13-1.81-.11-2.57a5.83,5.83,0,0,0,1.76.25,7.81,7.81,0,0,0,1.78-.21c0,.79,0,1.73.11,2.59a13.07,13.07,0,0,1,.06,2.25,20.21,20.21,0,0,0-.21,3A5.24,5.24,0,0,1,11.08,24.59Z"/><path class="cls-1" d="M23.78,16.08c1.48-3,2.47-5.46,1.78-7.87l-.37-1.29-.56,1.22c-.13.28-.34.65-.59,1.1-.37.67-.83,1.49-1.24,2.37,0-1.65,0-3.62.11-4.41a21.61,21.61,0,0,0,0-2.59c0-.56,0-1.18,0-1.87h-1c0,.7,0,1.33,0,1.9a17.68,17.68,0,0,1,0,2.46,46.23,46.23,0,0,0,0,6.18,5.69,5.69,0,0,1-3.53,0,47,47,0,0,1,0-6.1,21.61,21.61,0,0,0,0-2.59c0-.56,0-1.18,0-1.87h-1c0,.7,0,1.33,0,1.9a17.68,17.68,0,0,1,0,2.46,44.52,44.52,0,0,0,0,6.64,41.46,41.46,0,0,1-.07,4.45,24.21,24.21,0,0,0,0,3.73,23.63,23.63,0,0,1,.17,3.89,32.37,32.37,0,0,0,0,4.31l1-.24a34.91,34.91,0,0,1,0-4,.81.81,0,0,1,0-.15,8.19,8.19,0,0,0,1.76.2A5.68,5.68,0,0,0,22,25.69a.53.53,0,0,1,0,.13,32.37,32.37,0,0,0,0,4.31l1-.24a34.91,34.91,0,0,1,0-4,22.89,22.89,0,0,0-.19-4.16,29.5,29.5,0,0,1,.05-3.27,7.61,7.61,0,0,0,2,.26,10.29,10.29,0,0,0,5.07-1.61l1-.57-1.21-.38A9.15,9.15,0,0,0,23.78,16.08Zm1-6.13a14.13,14.13,0,0,1-1.84,5.56c0-.54,0-1,0-1.41A19.32,19.32,0,0,1,24.78,10ZM18.44,24.7a18.93,18.93,0,0,0-.21-3,31.5,31.5,0,0,1,.06-3.48c.06-1.43.13-2.88.11-3.87a8.49,8.49,0,0,0,1.78.21,5.73,5.73,0,0,0,1.65-.22,5.6,5.6,0,0,0,0,2.85c0,.33,0,.67,0,1a24.22,24.22,0,0,0,0,3.73A20.19,20.19,0,0,1,22,24.62h0A5.53,5.53,0,0,1,18.44,24.7Zm4.63-7.23,0,0a7.74,7.74,0,0,1,5.17-.64A7.11,7.11,0,0,1,23.07,17.47Z"/></svg>