<svg id="Soot" xmlns="http://www.w3.org/2000/svg" viewBox="0 0 30.13 25.45"><defs><style>.cls-1{fill:#5d5d5d;}</style></defs><path class="cls-1" d="M30,3.1a1.16,1.16,0,0,0-.47-.43c-.42-.24-.85-.47-1.29-.68a6.92,6.92,0,0,0-2.67-.74,4,4,0,0,0-2.45.66,16.44,16.44,0,0,0-2.11,2,34,34,0,0,0-5.56,3l.27-.66A.76.76,0,0,0,16,6.14h0a1.74,1.74,0,0,0,1.1-1,6.24,6.24,0,0,0,.57-1.69A3.72,3.72,0,0,0,17,.18a.38.38,0,0,0-.62.16,13.23,13.23,0,0,1-1,2.05,6.85,6.85,0,0,0-1.08,1.87A1.6,1.6,0,0,0,14.78,6l.2.1c-.13.3-.25.61-.38.91l-.12.3-.05.11,0,.1a.59.59,0,0,1,0,.08l0,0a.37.37,0,0,0-.36.25c-.88.62-1.74,1.26-2.6,1.93A7.83,7.83,0,0,0,11.62,9a.38.38,0,0,0-.06-.31A1.92,1.92,0,0,0,12,8.26,2.88,2.88,0,0,0,12.39,6,3.54,3.54,0,0,0,10.88,3.8a.35.35,0,0,0-.47.1.34.34,0,0,0-.3.35,4.7,4.7,0,0,1-.22,1.34c-.14.43-.35.82-.5,1.24A1.51,1.51,0,0,0,10,8.89a1.49,1.49,0,0,0,.8.1,7.83,7.83,0,0,1-.31,1s0,.12,0,.08a1,1,0,0,1-.07.15l-.12.26a3.72,3.72,0,0,1-.19.34A35.82,35.82,0,0,0,6.61,14a6.26,6.26,0,0,0,.14-1.23,2.89,2.89,0,0,0,1-1.35A2.8,2.8,0,0,0,8,10a4.73,4.73,0,0,0-.54-1.5c-.43-.86-1-1.79-2.1-1.84a.35.35,0,0,0-.34.48s0,0,0,.05a20.1,20.1,0,0,1-.11,3.47c-.1.81-.25,2,.73,2.29A1.47,1.47,0,0,0,6,13a5.58,5.58,0,0,1-.61,2.3.78.78,0,0,0,0,.14,22.11,22.11,0,0,0-1.69,2.37c-.16.27-.31.55-.47.83a5.82,5.82,0,0,0-.43-1.91,2,2,0,0,0,.79-1,3.18,3.18,0,0,0-.37-2.6A7.29,7.29,0,0,0,.94,10.94a.34.34,0,0,0-.51.17c-.38,0-.51.64-.08.72s.33.56.37.8c.09.53.15,1.06.19,1.59s0,1,.09,1.48a1.28,1.28,0,0,0,.61,1.07,1.19,1.19,0,0,0,.47.13,5,5,0,0,1,.29,3.19.37.37,0,0,0,0,.21,22.85,22.85,0,0,0-1.11,3,.37.37,0,0,0,.72.2A23.35,23.35,0,0,1,9.36,12.39l1-.87a.36.36,0,0,0,.28-.16s0-.09.07-.13q1.83-1.52,3.78-2.88a.74.74,0,0,0,.41-.27,0,0,0,0,0,0,0c.73-.5,1.48-1,2.24-1.41A53.31,53.31,0,0,0,7.09,15.42l-.32.13a.36.36,0,0,0-.16.44,28,28,0,0,0-2.48,3.57,23.44,23.44,0,0,0-2.35,5.5.37.37,0,0,0,.72.2,22.53,22.53,0,0,1,1.8-4.45,2.56,2.56,0,0,1,1.15-.44,8.07,8.07,0,0,1,1.22,0,.81.81,0,0,0,0,.22c.14.72.94,1,1.58,1.15a18.59,18.59,0,0,0,2.11.06,2.24,2.24,0,0,1,1.62.62.38.38,0,0,0,.62-.16c.31-1.51-.89-2.72-2.13-3.37a3.08,3.08,0,0,0-2-.39,2.12,2.12,0,0,0-1.1.59,2.09,2.09,0,0,0-.52.55l-.08,0a7.06,7.06,0,0,0-1.89.13,26.88,26.88,0,0,1,2.22-3.17.37.37,0,0,0,.37-.45l0-.05a6.75,6.75,0,0,1,1.17-.32,4.9,4.9,0,0,1,.77-.07h.58l0,0a.56.56,0,0,0,.17.09v0a1.55,1.55,0,0,0,1.05,1.36,6.49,6.49,0,0,0,2.11.17,2.68,2.68,0,0,1,1.7.77.38.38,0,0,0,.62-.16,3,3,0,0,0-1.81-3c-.28-.15-.57-.27-.86-.39a4,4,0,0,0-1-.31,1.48,1.48,0,0,0-.78.13.36.36,0,0,0-.28,0,1.55,1.55,0,0,0-.53.55,1.66,1.66,0,0,0-.54-.06c-.22,0-.44,0-.65,0a7.86,7.86,0,0,0-.83.11,40.29,40.29,0,0,1,3.09-3h0a9.55,9.55,0,0,1,2.56-.12,1.72,1.72,0,0,0,.17.7,1.93,1.93,0,0,0,1.7,1,10.1,10.1,0,0,1,2.05.27,3.2,3.2,0,0,1,1.63,1,.37.37,0,0,0,.69-.19,4.17,4.17,0,0,0-5.67-4,.36.36,0,0,0-.25.1l-.12.05a.31.31,0,0,0-.19.32,9.5,9.5,0,0,0-1.6,0c.83-.7,1.68-1.37,2.54-2a.32.32,0,0,0,.35,0,3.53,3.53,0,0,1,3-.35,1,1,0,0,0,0,.3c.16.75.91.91,1.55,1.07,1.33.33,2.89.62,3.78,1.77a.37.37,0,0,0,.64,0,2.24,2.24,0,0,0-.25-2.09,4.71,4.71,0,0,0-1.44-1.57c-.89-.62-2.52-1.31-3.45-.47a1.22,1.22,0,0,0-.55.32L18.63,8a4.13,4.13,0,0,0-1.81-.18c1.43-1,2.89-2,4.35-3,0,0,0,0,0,0a6.4,6.4,0,0,0,4.16.36c1.34-.35,2.64-1.56,4.08-1.41a.38.38,0,0,0,.38.16.47.47,0,0,0,.38-.48A.54.54,0,0,0,30,3.1Zm-27.6,13a.42.42,0,0,1-.64-.32,8.11,8.11,0,0,1-.07-1.21c0-.47-.08-.93-.14-1.4a8,8,0,0,0-.14-1c.94.77,1.8,1.79,1.52,3A1.23,1.23,0,0,1,2.41,16.1Zm3.48-3.9c-.29-.12-.3-.51-.29-.78s.09-.78.13-1.17A21.36,21.36,0,0,0,5.8,7.48a2.59,2.59,0,0,1,.93,1.09,2.82,2.82,0,0,1,.5,2.3,3.1,3.1,0,0,1-.51,1A.81.81,0,0,1,5.89,12.2Zm4.44-4c-.61-.24-.31-1-.12-1.45a10.51,10.51,0,0,0,.46-1.17,5.32,5.32,0,0,0,.14-.78l.07,0a2.58,2.58,0,0,1,.66,2.86A1,1,0,0,1,10.33,8.21ZM15,5.12a1.66,1.66,0,0,1,.38-1.45,14.6,14.6,0,0,0,.92-1.44c.17-.32.31-.65.45-1A3.27,3.27,0,0,1,17,3.29a7,7,0,0,1-.43,1.37,1.59,1.59,0,0,1-.42.6.32.32,0,0,0-.29.11C15.56,5.65,15.14,5.42,15,5.12ZM7.48,20.06a.33.33,0,0,0,.24-.17c.45-1,1.68-.78,2.45-.35a3.26,3.26,0,0,1,1.69,1.83A5.17,5.17,0,0,0,9.42,21a3.32,3.32,0,0,1-1.76-.29A.48.48,0,0,1,7.48,20.06ZM11,15.52a.32.32,0,0,0,.36-.26c.1-.42.67-.28.95-.19a7.14,7.14,0,0,1,1.33.58A2.75,2.75,0,0,1,15,17.07a3.52,3.52,0,0,0-.82-.36,8.14,8.14,0,0,0-1.91-.11c-.42,0-1-.12-1.18-.56A.77.77,0,0,1,11,15.52Zm3.92-4.18a3.53,3.53,0,0,1,3.18.38,3.47,3.47,0,0,1,1.36,2A5.35,5.35,0,0,0,17,12.87c-.58-.06-1.38.06-1.85-.36A1,1,0,0,1,14.94,11.34Zm4.35-2.82a.38.38,0,0,0,.36-.14l.09-.07a1.22,1.22,0,0,1,1.13-.14,4.48,4.48,0,0,1,1.46.7A3.87,3.87,0,0,1,23.41,10a3.11,3.11,0,0,1,.39.88,6.08,6.08,0,0,0-2.27-1.14c-.61-.18-1.22-.3-1.83-.47-.21-.06-.47-.12-.53-.35A.37.37,0,0,1,19.29,8.52Zm6.52-4.34a5.5,5.5,0,0,1-4,0c1-1,1.94-2.12,3.39-2.2a5.2,5.2,0,0,1,2.17.4c.35.14.69.3,1,.47l.3.14A16.33,16.33,0,0,0,25.81,4.18Z" transform="translate(-0.08 -0.07)"/></svg>